<svg width="1200" height="630" viewBox="0 0 1200 630" fill="none" xmlns="http://www.w3.org/2000/svg">
  <defs>
    <linearGradient id="bg" x1="0" y1="0" x2="1200" y2="630" gradientUnits="userSpaceOnUse">
      <stop stop-color="#F8FCFF"/>
      <stop offset="1" stop-color="#EAF3FF"/>
    </linearGradient>
    <linearGradient id="panel" x1="84" y1="78" x2="1116" y2="552" gradientUnits="userSpaceOnUse">
      <stop stop-color="#FFFFFF" stop-opacity="0.82"/>
      <stop offset="1" stop-color="#F5F9FF" stop-opacity="0.88"/>
    </linearGradient>
  </defs>
  <rect width="1200" height="630" fill="url(#bg)"/>
  <g opacity="0.34" stroke="#CFDDF1">
    <path d="M0 90H1200"/><path d="M0 180H1200"/><path d="M0 270H1200"/><path d="M0 360H1200"/><path d="M0 450H1200"/><path d="M0 540H1200"/>
    <path d="M120 0V630"/><path d="M240 0V630"/><path d="M360 0V630"/><path d="M480 0V630"/><path d="M600 0V630"/><path d="M720 0V630"/><path d="M840 0V630"/><path d="M960 0V630"/><path d="M1080 0V630"/>
  </g>
  <rect x="74" y="72" width="1052" height="486" rx="28" fill="url(#panel)" stroke="#D8E4F5" stroke-width="1.5"/>
  <text x="118" y="188" fill="#2D6FDA" font-family="IBM Plex Mono, Menlo, monospace" font-size="21" font-weight="500">michaelwdanko.com</text>
  <text x="118" y="308" fill="#152843" font-family="Inter, Helvetica, Arial, sans-serif" font-size="78" font-weight="600" letter-spacing="-2.2">Michael W. Danko</text>
  <text x="122" y="372" fill="#3F5F8E" font-family="Inter, Helvetica, Arial, sans-serif" font-size="30" font-weight="400">Complex problems. Simple solutions.</text>
  <line x1="118" y1="430" x2="402" y2="430" stroke="#5EA9FF" stroke-opacity="0.72" stroke-width="2"/>
  <g opacity="0.96">
    <rect x="118" y="468" width="18" height="18" rx="4" fill="#5EA9FF"/>
    <rect x="148" y="468" width="18" height="18" rx="4" fill="#2D6FDA"/>
    <rect x="178" y="468" width="18" height="18" rx="4" fill="#17458F"/>
  </g>
  <line x1="890" y1="132" x2="1048" y2="132" stroke="#5EA9FF" stroke-opacity="0.8"/>
  <line x1="890" y1="156" x2="1076" y2="156" stroke="#5EA9FF" stroke-opacity="0.48"/>
  <line x1="890" y1="180" x2="1014" y2="180" stroke="#5EA9FF" stroke-opacity="0.28"/>
</svg>